<?xml version="1.0" standalone="no"?>
<!DOCTYPE svg PUBLIC "-//W3C//DTD SVG 20010904//EN"
 "http://www.w3.org/TR/2001/REC-SVG-20010904/DTD/svg10.dtd">
<svg version="1.0" xmlns="http://www.w3.org/2000/svg"
 width="1542.000000pt" height="591.000000pt" viewBox="0 0 1542.000000 591.000000"
 preserveAspectRatio="xMidYMid meet">

<g transform="translate(0.000000,591.000000) scale(0.100000,-0.100000)"
fill="#000000" stroke="none">
<path d="M2645 5563 c-693 -42 -1325 -342 -1783 -846 -711 -782 -879 -1902
-428 -2860 125 -266 294 -505 511 -723 688 -690 1700 -935 2630 -637 396 127
741 338 1040 638 218 218 366 425 500 700 280 573 338 1225 165 1839 -217 770
-786 1405 -1525 1701 -357 144 -751 210 -1110 188z m390 -137 c753 -81 1419
-491 1827 -1126 476 -740 517 -1706 107 -2480 -355 -669 -999 -1144 -1734
-1279 -730 -135 -1467 59 -2042 536 -419 347 -726 861 -832 1393 -95 475 -52
968 121 1405 408 1029 1460 1668 2553 1551z"/>
<path d="M2733 4553 c3 -16 9 -36 12 -45 5 -13 2 -15 -15 -11 -12 3 -24 12
-27 19 -11 29 -23 12 -23 -32 0 -33 4 -45 13 -41 40 15 57 17 57 8 0 -5 -4
-13 -10 -16 -5 -3 -10 -13 -10 -21 0 -10 12 -14 40 -14 45 0 49 7 20 38 -23
25 -11 29 34 12 26 -9 26 -9 26 38 0 26 -4 42 -8 36 -13 -20 -47 -33 -63 -23
-7 5 -9 9 -3 9 11 0 34 42 34 60 0 6 -19 10 -41 10 -40 0 -41 -1 -36 -27z"/>
<path d="M3570 4480 c0 -6 11 -23 25 -38 14 -15 25 -30 25 -34 0 -4 10 -18 23
-31 12 -13 33 -39 47 -57 14 -18 32 -40 40 -49 8 -9 24 -30 34 -46 11 -17 28
-36 38 -43 10 -7 18 -19 18 -26 0 -8 11 -21 25 -30 14 -9 25 -23 25 -31 0 -8
9 -20 19 -27 16 -10 17 -13 5 -26 -8 -7 -27 -17 -42 -21 -15 -4 -32 -18 -39
-31 -6 -13 -25 -29 -42 -36 -17 -7 -41 -22 -53 -33 -12 -12 -27 -21 -34 -21
-30 0 -60 -99 -34 -115 5 -3 22 1 37 8 45 23 96 32 91 16 -3 -8 -18 -18 -34
-24 -44 -15 -55 -34 -32 -57 21 -21 34 -23 41 -5 3 6 6 -5 6 -25 1 -21 3 -38
6 -38 14 0 45 37 45 55 0 11 5 27 10 35 8 13 10 12 10 -2 0 -29 29 -21 36 10
11 49 14 54 32 49 88 -29 97 -30 134 -13 31 15 39 25 46 59 9 41 9 41 17 15 4
-16 5 -38 1 -51 -9 -38 -68 -92 -133 -121 -24 -10 -43 -23 -43 -27 0 -13 -59
-37 -79 -32 -16 4 -19 1 -14 -16 3 -13 1 -21 -7 -21 -7 0 -6 -5 4 -15 24 -24
86 -8 86 23 0 12 21 20 38 15 14 -5 17 -43 3 -43 -5 0 -11 -9 -14 -20 -3 -13
0 -20 9 -20 8 0 14 -4 14 -10 0 -5 7 -10 15 -10 8 0 15 -4 15 -10 0 -5 5 -10
10 -10 6 0 10 9 10 21 0 13 5 19 13 15 6 -3 20 -9 30 -12 9 -4 17 -12 17 -19
0 -8 -8 -16 -17 -18 -17 -4 -17 -5 0 -6 9 0 17 -7 17 -14 0 -16 -38 -40 -50
-32 -6 4 -5 -5 1 -19 13 -29 46 -43 61 -28 13 13 2 32 -18 32 -8 0 -14 4 -14
9 0 13 34 23 52 16 9 -4 21 4 32 19 30 46 45 33 43 -36 -2 -62 -3 -63 -30 -60
-32 3 -38 -22 -8 -38 29 -15 51 -13 45 5 -9 22 5 53 15 36 6 -10 11 -9 24 3
13 13 17 13 27 1 9 -11 5 -21 -24 -50 -20 -20 -36 -40 -36 -45 0 -25 -60 -6
-104 33 -11 9 -25 17 -32 17 -7 0 -19 6 -26 13 -7 6 -31 21 -53 32 -22 11 -45
25 -52 31 -7 7 -33 20 -57 30 -25 11 -46 22 -46 26 0 4 -16 14 -35 22 -19 8
-35 20 -35 25 0 6 -4 11 -10 11 -5 0 -10 -7 -10 -16 0 -19 -39 -103 -57 -121
-6 -7 -14 -31 -18 -52 l-7 -40 -26 25 c-15 13 -27 32 -28 42 -1 9 -2 26 -3 38
-1 27 -43 46 -73 35 -27 -10 -66 2 -74 24 -8 19 -56 45 -84 45 -21 0 -63 -23
-90 -50 -13 -13 -13 -17 8 -37 12 -12 22 -18 22 -13 0 4 14 12 31 15 27 6 35
3 55 -21 13 -16 23 -32 24 -35 0 -3 20 -27 45 -53 62 -66 60 -76 -18 -76 -75
0 -95 -12 -103 -61 -5 -28 -2 -41 13 -56 10 -10 30 -46 43 -79 13 -32 27 -61
30 -64 4 -3 14 -19 23 -36 11 -21 28 -35 56 -44 23 -7 41 -17 41 -21 0 -4 15
-13 33 -20 17 -7 35 -14 40 -17 4 -2 7 2 7 8 0 14 -25 40 -39 40 -5 0 -12 4
-15 9 -3 5 12 5 35 0 47 -11 56 -8 37 13 -7 7 -18 23 -24 33 -9 16 -22 20 -62
19 -51 -2 -51 -2 -45 27 4 24 2 29 -20 34 -16 4 -30 18 -38 38 -7 18 -21 40
-31 50 -19 19 -24 42 -9 51 5 3 58 3 119 -1 109 -6 111 -7 120 -33 l10 -26
-40 19 c-39 20 -41 20 -74 2 -42 -23 -45 -57 -8 -92 34 -31 103 -30 119 3 10
21 35 22 35 1 1 -37 95 -97 150 -97 11 0 20 -4 20 -8 0 -5 12 -15 28 -23 38
-20 82 -64 82 -83 0 -13 -11 -16 -52 -16 -127 0 -215 -50 -225 -128 -3 -23
-10 -42 -14 -42 -5 0 -9 -9 -9 -20 0 -11 4 -20 9 -20 5 0 12 -12 15 -28 4 -15
22 -44 41 -65 61 -67 43 -108 -61 -134 -38 -10 -71 -21 -74 -24 -3 -4 -34 -10
-70 -14 -106 -11 -125 -20 -189 -83 -65 -64 -70 -72 -45 -72 18 0 53 38 54 58
0 14 30 17 30 3 0 -5 -6 -16 -13 -23 -7 -7 -16 -22 -20 -32 -7 -17 -4 -18 42
-13 31 4 58 14 70 26 22 22 28 51 11 51 -5 0 -10 7 -10 15 0 20 24 19 56 -1
23 -16 29 -16 89 1 36 9 65 20 65 24 0 4 32 18 70 31 39 13 70 27 70 32 0 4 7
8 15 8 25 0 65 23 65 37 0 8 -7 21 -15 29 -15 16 -20 80 -9 122 7 24 60 52
100 52 21 0 24 -5 24 -35 0 -19 5 -35 10 -35 6 0 10 -7 10 -15 0 -34 77 -140
102 -140 5 0 15 -7 21 -15 17 -23 80 -50 116 -50 44 0 53 -25 54 -161 l2 -118
-56 -53 c-31 -29 -62 -68 -69 -85 -7 -18 -16 -33 -21 -33 -5 0 -9 -7 -9 -16 0
-29 35 -10 46 26 6 19 16 36 23 38 13 4 15 -15 2 -20 -5 -1 -11 -16 -13 -33
-3 -29 -2 -30 32 -27 43 5 90 31 91 52 2 29 -3 45 -18 53 -12 8 -12 11 4 26
15 15 20 15 32 4 23 -24 45 -11 54 32 4 22 6 48 3 58 -4 16 1 17 37 12 38 -6
46 -3 75 24 37 36 40 63 12 91 -26 26 -64 26 -90 0 -11 -11 -24 -20 -30 -20
-5 0 -11 45 -12 103 l-3 102 -38 -3 c-40 -4 -77 18 -77 45 0 7 -4 13 -10 13
-12 0 -14 77 -2 82 11 5 42 111 42 145 0 46 27 50 44 8 8 -19 20 -35 25 -35 6
0 13 -17 16 -37 14 -81 25 -102 61 -115 19 -6 34 -16 34 -20 0 -4 9 -8 20 -8
11 0 20 4 20 9 0 5 8 11 18 13 13 3 10 7 -13 19 -34 16 -52 68 -18 55 42 -17
81 -18 111 -2 40 21 44 51 6 42 -23 -6 -24 -5 -13 16 7 13 17 26 23 30 15 10
13 147 -1 156 -6 4 -15 20 -19 35 -6 27 -27 50 -165 184 -81 79 -88 89 -100
140 -15 67 -4 111 38 152 28 27 44 35 77 35 36 1 41 -2 38 -19 -20 -110 -5
-160 55 -191 21 -10 43 -24 50 -30 6 -6 32 -17 57 -24 25 -7 46 -16 46 -20 0
-5 14 -13 30 -19 26 -8 30 -8 30 7 0 24 -12 38 -37 46 -13 4 -23 12 -23 17 0
5 -5 9 -10 9 -17 0 -79 44 -83 60 -3 8 -8 24 -13 34 -4 11 12 1 36 -22 26 -26
52 -42 67 -42 21 0 22 2 11 15 -34 38 -40 48 -45 83 -11 84 -34 112 -92 112
-18 0 -34 7 -40 17 -7 14 -23 18 -71 18 -33 0 -64 -5 -68 -10 -4 -6 -19 -18
-33 -27 -14 -9 -32 -30 -39 -47 -7 -17 -16 -31 -21 -31 -5 0 -9 -31 -9 -70 0
-40 4 -70 10 -70 6 0 10 -7 10 -15 0 -32 39 -84 138 -183 56 -56 102 -106 102
-111 0 -5 7 -17 16 -26 10 -10 18 -40 21 -78 5 -55 2 -65 -18 -89 -39 -44
-149 -48 -149 -5 0 7 -9 18 -20 25 -11 7 -20 19 -20 26 0 8 -6 21 -12 28 -7 7
-23 34 -36 61 -13 26 -27 47 -31 47 -7 0 -16 14 -39 63 -2 4 9 7 24 7 47 0 67
48 42 102 -21 45 -92 53 -110 14 -17 -38 -34 -38 -54 0 -10 19 -22 34 -26 34
-5 0 -16 18 -25 40 -10 22 -21 40 -25 40 -5 0 -8 18 -8 40 0 22 3 40 8 40 4 0
16 18 26 40 11 22 24 40 30 40 17 0 116 99 116 115 0 8 -4 15 -10 15 -5 0 -10
11 -10 25 0 31 25 33 42 5 26 -41 36 -22 37 72 1 51 3 94 5 95 2 2 11 -3 19
-12 22 -22 52 -20 41 3 -4 9 -10 53 -12 97 -2 44 -7 82 -11 85 -4 3 -11 17
-15 33 -5 23 -3 27 14 27 26 0 26 26 0 33 -11 3 -24 17 -30 32 -14 36 -61 85
-82 85 -26 0 -29 15 -7 30 27 20 24 27 -16 33 -19 3 -42 12 -50 20 -8 8 -37
18 -65 22 -37 5 -50 11 -50 24 0 9 -8 24 -17 33 -10 10 -27 26 -37 38 -27 28
-36 25 -36 -14 0 -19 -4 -38 -10 -41 -5 -3 -97 82 -204 190 -108 107 -198 195
-201 195 -3 0 -5 -5 -5 -10z m358 -527 c2 -8 -6 -13 -22 -13 -14 0 -26 -4 -26
-10 0 -14 -37 -13 -46 2 -4 6 -3 8 3 5 6 -4 13 2 16 14 4 16 12 20 38 17 18
-2 34 -9 37 -15z m-370 -585 c-3 -46 -14 -55 -42 -35 -28 21 -13 77 20 77 23
0 25 -3 22 -42z m65 -288 c21 -25 21 -28 3 -46 -33 -32 -85 -6 -86 44 0 18 5
22 33 22 20 0 39 -8 50 -20z m709 -132 c14 -23 4 -53 -19 -56 -37 -5 -63 15
-63 50 0 30 1 30 37 25 20 -4 40 -12 45 -19z m-43 -224 c2 -2 0 -19 -3 -38 -5
-27 -13 -37 -31 -42 -36 -9 -55 2 -55 30 0 45 58 78 89 50z m-133 -184 c20 0
18 -50 -3 -66 -27 -20 -61 -17 -68 6 -8 24 11 60 30 60 8 0 15 6 16 13 0 10 2
10 6 0 2 -7 11 -13 19 -13z m362 -406 c4 -31 -31 -57 -67 -49 -37 8 -40 29 -8
56 29 25 71 21 75 -7z"/>
<path d="M1517 4407 c-4 -11 -5 -23 -1 -28 3 -5 -2 -9 -10 -9 -10 0 -16 -9
-16 -21 0 -16 5 -20 19 -16 16 4 20 -1 23 -27 2 -26 7 -31 28 -31 31 0 40 33
14 52 -16 11 -16 15 -5 22 21 13 6 41 -18 34 -15 -4 -20 1 -23 19 -3 20 -4 21
-11 5z"/>
<path d="M1647 4394 c-10 -11 3 -24 24 -24 10 0 19 7 19 15 0 15 -31 21 -43 9z"/>
<path d="M1713 4383 c-10 -3 -10 -8 1 -19 20 -20 36 -17 36 6 0 19 -12 24 -37
13z"/>
<path d="M2693 4350 c-9 -16 -21 -30 -25 -30 -4 0 -8 -4 -8 -10 0 -11 79 -14
81 -2 10 63 8 72 -11 72 -10 0 -27 -13 -37 -30z"/>
<path d="M2790 4340 c0 -39 1 -40 35 -40 37 0 42 8 24 43 -27 51 -59 50 -59
-3z"/>
<path d="M1590 4350 c0 -15 7 -20 26 -20 20 0 25 4 20 16 -3 9 -6 18 -6 20 0
2 -9 4 -20 4 -13 0 -20 -7 -20 -20z"/>
<path d="M1750 4320 c0 -13 7 -20 20 -20 13 0 20 7 20 20 0 13 -7 20 -20 20
-13 0 -20 -7 -20 -20z"/>
<path d="M1476 4304 c-10 -26 -7 -34 14 -34 23 0 26 15 6 35 -12 12 -15 12
-20 -1z"/>
<path d="M1410 4285 c0 -8 9 -15 20 -15 11 0 20 7 20 15 0 8 -9 15 -20 15 -11
0 -20 -7 -20 -15z"/>
<path d="M1679 4298 c-6 -18 -4 -78 3 -78 5 0 8 -10 6 -22 -3 -26 -43 -37 -61
-19 -8 8 -6 11 7 11 12 0 16 5 12 16 -3 9 -6 17 -6 20 0 2 -7 0 -17 -3 -11 -4
-14 -3 -9 5 5 8 -1 12 -19 12 -22 0 -25 -3 -19 -25 4 -16 2 -25 -6 -25 -6 0
-9 -4 -6 -9 3 -5 15 -7 26 -4 11 3 20 0 20 -6 0 -6 -4 -11 -10 -11 -5 0 -10
-7 -10 -15 0 -10 -10 -15 -31 -15 -28 0 -31 2 -25 25 5 18 2 25 -9 25 -8 0
-15 6 -15 14 0 12 -20 26 -36 26 -8 0 -4 -39 5 -44 5 -3 7 -15 4 -26 -4 -15 0
-20 16 -20 22 0 28 -14 11 -25 -15 -9 -50 4 -47 18 1 7 -5 11 -13 10 -9 -2
-20 10 -27 28 -8 21 -18 30 -29 27 -29 -5 -29 -28 1 -28 16 0 25 -5 23 -13 -2
-7 14 -30 35 -51 37 -39 37 -39 77 -26 22 7 40 17 40 21 0 7 123 49 147 49 7
0 13 4 13 9 0 5 12 11 28 14 26 5 27 8 27 66 0 34 -3 61 -7 61 -5 0 -8 -4 -8
-10 0 -5 -7 -10 -15 -10 -8 0 -15 -9 -15 -20 0 -13 5 -18 15 -14 19 8 20 -13
1 -32 -23 -22 -39 -17 -34 11 4 17 1 25 -8 25 -8 0 -14 10 -14 24 0 20 -17 47
-21 34z"/>
<path d="M2408 4266 c-24 -18 -23 -31 5 -43 23 -11 57 3 57 22 0 8 -31 34 -40
34 -3 0 -13 -6 -22 -13z"/>
<path d="M3083 4273 c-18 -7 -16 -50 2 -57 24 -9 45 4 45 29 0 18 -22 40 -33
34 -1 0 -8 -3 -14 -6z"/>
<path d="M2487 4249 c-8 -30 -1 -39 29 -39 22 0 25 4 22 28 -4 36 -43 44 -51
11z"/>
<path d="M2668 4263 c6 -2 12 -10 12 -16 2 -45 92 -83 123 -53 8 9 20 16 26
16 11 0 31 32 31 49 0 7 -36 11 -102 10 -57 0 -97 -3 -90 -6z"/>
<path d="M2993 4263 c-20 -7 -15 -41 6 -48 26 -8 51 4 51 25 0 24 -28 35 -57
23z"/>
<path d="M1370 4240 c0 -13 7 -20 20 -20 13 0 20 7 20 20 0 13 -7 20 -20 20
-13 0 -20 -7 -20 -20z"/>
<path d="M2333 4245 c-18 -19 -16 -52 2 -59 39 -14 61 29 31 60 -17 17 -18 17
-33 -1z"/>
<path d="M3172 4244 c-30 -33 2 -79 33 -48 19 20 19 26 -3 45 -15 13 -20 13
-30 3z"/>
<path d="M2577 4233 c-10 -10 -8 -41 3 -48 17 -11 50 5 50 25 0 23 -37 40 -53
23z"/>
<path d="M2917 4233 c-4 -3 -7 -17 -7 -30 0 -18 6 -23 24 -23 30 0 40 13 31
40 -6 19 -35 27 -48 13z"/>
<path d="M2645 4191 c-8 -26 4 -51 25 -51 10 0 21 7 24 16 10 25 -3 54 -24 54
-10 0 -21 -8 -25 -19z"/>
<path d="M2840 4195 c0 -8 -4 -15 -10 -15 -5 0 -1 -9 10 -20 35 -35 63 -17 52
33 -4 22 -52 24 -52 2z"/>
<path d="M2264 4176 c-10 -26 4 -48 28 -44 17 2 23 10 23 28 0 18 -6 26 -23
28 -13 2 -25 -3 -28 -12z"/>
<path d="M3224 4176 c-10 -26 4 -48 28 -44 17 2 23 10 23 28 0 18 -6 26 -23
28 -13 2 -25 -3 -28 -12z"/>
<path d="M1797 4151 c-3 -11 -31 -22 -86 -35 -44 -10 -81 -22 -81 -27 0 -4
-15 -12 -34 -19 -19 -6 -44 -20 -57 -31 -13 -11 -32 -19 -44 -17 -27 3 -45 -9
-45 -31 0 -12 -12 -20 -42 -27 -55 -12 -61 -35 -18 -77 25 -25 30 -36 25 -56
-4 -15 -9 -48 -12 -76 -3 -27 -9 -52 -13 -55 -4 -3 -10 -17 -13 -32 -6 -23 -4
-25 14 -21 11 3 26 16 31 29 6 13 14 24 17 24 4 0 13 21 21 48 8 28 16 40 18
29 5 -22 -28 -127 -39 -127 -5 0 -9 -34 -9 -75 0 -43 4 -75 10 -75 6 0 10 -14
10 -32 0 -49 18 -22 32 48 7 32 15 61 19 64 3 3 9 22 13 43 4 20 11 37 16 37
12 0 12 -7 1 -67 -5 -26 -12 -88 -15 -137 l-5 -89 30 30 c16 17 34 44 40 61
13 38 38 51 31 16 -2 -13 -8 -24 -12 -24 -4 0 -16 -31 -25 -70 -9 -38 -20 -70
-24 -70 -4 0 -15 -31 -25 -70 -10 -38 -22 -70 -27 -70 -5 0 -9 -7 -9 -15 0
-21 -40 -98 -55 -107 -7 -4 -18 -22 -25 -39 -8 -18 -24 -43 -37 -57 -13 -14
-23 -31 -23 -38 0 -8 -4 -14 -8 -14 -4 0 -19 -22 -33 -50 -13 -27 -27 -50 -31
-50 -4 0 -15 -14 -23 -31 -29 -54 -85 -99 -126 -99 -11 0 -19 -6 -19 -12 0
-10 -2 -10 -8 -2 -4 7 -18 14 -32 15 -14 2 -29 14 -35 27 -5 12 -13 22 -17 22
-5 0 -8 25 -8 55 0 30 4 55 9 55 5 0 14 14 20 32 6 17 18 39 26 47 8 9 34 38
57 65 50 55 113 120 143 145 24 20 41 46 56 84 6 15 14 27 19 27 15 0 33 90
26 131 -9 58 -66 110 -121 112 -50 1 -64 -3 -87 -26 -11 -10 -31 -17 -46 -16
-75 6 -101 -14 -128 -93 -9 -29 -23 -59 -31 -66 -7 -7 -13 -20 -13 -28 0 -8
-10 -19 -22 -24 l-23 -9 23 0 c27 -1 64 16 75 35 4 8 17 19 28 25 19 10 20 9
14 -13 -4 -12 -14 -27 -22 -32 -9 -4 -23 -16 -32 -25 -9 -9 -33 -25 -54 -34
-20 -10 -37 -22 -37 -27 0 -5 -9 -11 -19 -15 -18 -5 -49 -70 -39 -81 3 -2 19
9 37 25 17 16 53 37 79 46 26 10 49 21 52 25 3 3 26 14 53 24 26 10 47 22 47
27 0 5 7 9 15 9 8 0 22 11 32 25 10 14 26 35 36 47 22 27 22 91 1 113 -20 19
-16 25 28 34 55 12 81 0 97 -45 13 -36 12 -47 -3 -93 -19 -58 -19 -59 -91
-137 -27 -30 -77 -84 -110 -121 -33 -36 -67 -73 -75 -82 -47 -51 -71 -167 -51
-239 9 -31 9 -32 -20 -32 -42 0 -37 -26 8 -45 25 -11 51 -14 80 -9 36 5 43 4
43 -11 0 -10 -15 -23 -40 -32 -48 -19 -50 -29 -10 -38 39 -9 88 3 114 26 11
11 25 19 31 19 6 0 17 16 25 35 8 19 16 35 20 35 3 0 14 15 25 33 10 17 24 36
31 40 8 4 21 23 30 42 9 19 20 35 25 35 5 0 14 12 20 26 5 15 12 24 15 22 6
-7 -26 -89 -42 -105 -7 -7 -20 -44 -30 -83 -10 -38 -22 -70 -26 -70 -4 0 -8
-12 -8 -27 0 -38 -26 -144 -36 -152 -5 -3 -14 -15 -20 -26 -6 -11 -20 -24 -32
-30 -12 -5 -22 -13 -22 -17 0 -5 -11 -8 -25 -8 -14 0 -25 5 -25 10 0 6 -7 10
-15 10 -11 0 -15 -12 -15 -45 0 -25 -4 -45 -10 -45 -29 0 -49 -126 -31 -202 5
-22 9 -25 22 -15 9 7 19 23 24 36 14 46 24 4 13 -60 -14 -78 -7 -105 21 -89
37 19 54 13 47 -17 -18 -73 -18 -83 -1 -89 9 -4 27 -1 40 6 17 9 45 11 89 7
56 -5 67 -4 78 12 21 28 49 34 55 11 6 -22 11 -24 32 -11 8 5 13 25 13 50 -1
37 2 41 23 41 13 0 25 -5 27 -11 6 -18 38 2 38 23 0 25 -27 47 -58 48 -12 0
-25 7 -28 15 -9 22 -61 19 -86 -5 -44 -41 -124 -11 -144 54 -4 11 -10 23 -15
26 -5 3 -11 37 -15 76 -6 68 -6 71 24 100 17 17 55 38 86 48 31 10 56 21 56
24 0 4 14 13 31 21 58 26 179 164 179 204 0 9 5 17 10 19 6 2 13 47 17 100 l6
97 28 -29 c62 -61 61 -193 -1 -225 -33 -17 -38 -38 -15 -61 8 -9 15 -26 15
-40 0 -13 4 -24 8 -24 4 0 14 -16 21 -35 13 -36 36 -65 52 -65 5 0 9 16 9 35
0 54 25 34 44 -36 11 -37 22 -59 32 -59 7 0 14 -4 14 -10 0 -5 7 -10 15 -10 8
0 15 9 15 20 0 37 58 18 73 -24 7 -16 15 -18 71 -14 35 3 70 2 77 -3 8 -5 9
-9 3 -9 -6 0 -11 -7 -11 -15 0 -8 6 -15 13 -15 17 0 34 32 34 64 0 14 5 28 10
31 16 10 50 -5 50 -21 0 -8 7 -14 15 -14 10 0 15 10 15 31 0 45 -61 100 -113
101 -25 0 -42 -6 -51 -17 -10 -14 -21 -16 -54 -10 -23 4 -42 11 -42 15 0 5 -9
11 -19 15 -25 7 -115 92 -130 122 -25 48 -17 64 67 131 23 19 42 40 42 48 0 8
5 14 10 14 6 0 10 20 10 45 0 32 -6 52 -22 71 -32 37 -71 74 -80 74 -4 0 -19
11 -34 25 -15 14 -32 25 -38 25 -6 0 -17 9 -24 20 -11 18 -9 21 15 31 15 5 60
9 100 8 40 -1 75 0 76 2 2 2 8 15 14 29 11 23 12 22 12 -17 1 -24 3 -43 6 -43
4 0 19 7 35 15 l30 16 0 -36 c0 -35 16 -48 26 -20 4 8 15 15 25 15 27 0 24
-35 -6 -68 -26 -27 -33 -66 -15 -77 17 -11 11 -37 -10 -42 -23 -6 -27 -23 -6
-23 8 0 17 -6 19 -12 4 -9 8 -10 14 -3 4 6 21 16 37 23 29 13 29 13 23 -18 -5
-24 -3 -30 11 -30 25 0 42 20 42 47 0 13 6 23 14 23 20 0 39 -27 32 -45 -6
-16 3 -19 28 -9 10 4 16 18 16 38 -1 41 -16 107 -28 115 -12 8 -22 37 -32 93
-7 36 -19 57 -50 87 -22 21 -40 42 -40 47 0 4 -16 24 -35 43 -56 58 -115 123
-115 127 0 15 27 -3 65 -42 25 -26 50 -44 58 -41 7 3 19 23 27 46 7 23 16 41
20 41 4 0 13 13 20 30 7 16 23 42 36 57 26 32 42 50 64 77 14 18 13 18 -10 11
-14 -4 -31 -10 -37 -12 -8 -3 -13 3 -13 16 0 12 -4 21 -8 21 -11 0 -30 62 -35
116 -3 25 -14 51 -31 69 -14 15 -26 32 -26 37 0 5 -10 13 -22 19 -22 9 -22 9
2 3 50 -13 90 -16 90 -8 -1 20 -122 154 -140 154 -5 0 -12 4 -15 10 -9 15 28
0 42 -17 16 -21 93 -30 93 -12 0 8 -10 19 -22 24 -12 6 -26 18 -32 29 -15 26
-55 67 -86 88 l-25 18 23 0 c21 0 52 20 52 33 0 3 -16 8 -35 11 -19 4 -35 11
-35 16 0 6 -7 10 -15 10 -12 0 -15 13 -15 59 l0 58 -79 0 c-64 -1 -80 -4 -84
-16z m47 -128 c-4 -21 -9 -41 -11 -45 -8 -14 -61 -8 -77 8 -23 23 -20 32 14
39 17 4 30 10 30 15 0 7 18 15 43 19 4 0 5 -16 1 -36z m-209 -80 c-13 -55 -32
-63 -83 -37 -43 21 -40 31 11 44 23 6 47 13 52 15 23 8 27 4 20 -22z m191 -38
c18 -14 18 -14 -9 -15 -21 0 -28 -4 -26 -17 2 -10 -3 -28 -10 -41 -16 -31 -8
-52 22 -52 28 0 47 -34 47 -84 0 -46 -21 -62 -67 -50 -45 11 -62 50 -44 99 15
44 6 65 -30 65 -19 0 -29 5 -29 15 0 8 -7 15 -15 15 -8 0 -15 -7 -15 -15 0 -8
-5 -15 -11 -15 -18 0 -5 42 16 54 11 6 22 13 25 17 6 6 100 37 116 38 5 1 19
-6 30 -14z"/>
<path d="M2710 4077 c0 -49 4 -66 15 -71 21 -8 27 11 23 75 -2 42 -7 55 -20
57 -16 3 -18 -5 -18 -61z"/>
<path d="M2792 4073 c4 -86 22 -85 26 2 2 54 0 65 -13 65 -13 0 -15 -11 -13
-67z"/>
<path d="M2224 4106 c-10 -26 4 -48 28 -44 17 2 23 10 23 28 0 18 -6 26 -23
28 -13 2 -25 -3 -28 -12z"/>
<path d="M3250 4090 c0 -23 5 -30 19 -30 27 0 51 10 51 22 0 16 -28 38 -49 38
-17 0 -21 -6 -21 -30z"/>
<path d="M2223 4035 c-7 -8 -13 -23 -13 -35 0 -16 6 -20 30 -20 24 0 30 4 30
21 0 11 -6 27 -14 35 -17 17 -18 17 -33 -1z"/>
<path d="M3267 4028 c-18 -19 -18 -20 3 -38 12 -10 28 -16 35 -14 22 9 24 41
4 58 -23 19 -19 19 -42 -6z"/>
<path d="M2513 4012 c-7 -4 -15 -21 -19 -38 -4 -22 0 -36 18 -57 23 -27 24
-27 41 -7 18 21 24 70 8 70 -5 0 -11 9 -14 20 -5 21 -15 24 -34 12z"/>
<path d="M2995 4012 c-27 -19 -36 -53 -25 -88 13 -39 20 -41 43 -16 17 19 22
67 11 96 -7 18 -14 20 -29 8z"/>
<path d="M2711 3957 c9 -7 19 -22 23 -35 6 -17 3 -22 -11 -22 -11 0 -24 5 -31
12 -9 9 -12 0 -12 -41 0 -48 1 -51 16 -37 23 24 53 21 47 -4 -13 -48 -129 -68
-173 -30 -13 11 -18 20 -12 20 7 0 12 7 12 15 0 8 5 15 10 15 6 0 13 -7 16
-15 4 -8 12 -15 20 -15 19 0 18 57 0 76 -19 19 -66 -1 -66 -28 0 -10 -4 -18
-10 -18 -5 0 -10 4 -10 9 0 18 -32 41 -56 41 -21 0 -24 -4 -24 -39 0 -40 25
-65 36 -36 9 21 32 18 39 -5 8 -24 -1 -40 -21 -40 -8 0 -14 -4 -14 -10 0 -19
-89 -11 -112 10 l-22 20 32 0 c30 0 32 2 26 28 -10 37 -23 43 -46 20 -10 -10
-22 -16 -27 -14 -11 7 -1 59 13 68 13 9 -20 10 -51 2 -25 -7 -31 -38 -10 -51
7 -4 21 -28 32 -53 11 -25 22 -47 25 -50 15 -13 40 -114 30 -124 -24 -24 -7
-106 29 -133 15 -11 15 -12 0 -13 -9 0 -24 -11 -33 -25 -9 -14 -22 -25 -28
-25 -15 0 -78 -62 -78 -77 0 -7 -9 -18 -20 -25 -11 -7 -20 -18 -20 -24 0 -6
-11 -23 -24 -37 -13 -14 -32 -46 -41 -71 -10 -25 -22 -46 -26 -46 -5 0 -9 -11
-9 -24 0 -26 27 -43 44 -26 13 13 46 13 46 0 0 -5 16 -10 35 -10 24 0 35 -5
35 -15 0 -8 5 -15 10 -15 17 0 11 -32 -10 -50 -12 -10 -29 -16 -41 -13 -18 5
-18 6 -3 18 9 6 15 18 12 25 -3 10 -8 9 -21 -4 -17 -18 -14 -67 5 -74 4 -2 8
-15 8 -28 0 -14 9 -44 20 -66 11 -23 20 -47 20 -52 0 -8 75 -11 232 -11 l233
0 0 -245 0 -245 -22 -3 c-25 -4 -32 -22 -8 -22 8 0 15 -4 15 -10 0 -5 19 -14
43 -20 23 -6 50 -13 59 -16 12 -4 19 2 24 20 3 14 10 26 15 26 5 0 9 5 9 10 0
6 -22 10 -50 10 l-50 0 0 250 0 250 220 0 220 0 0 -28 c0 -39 -20 -146 -29
-152 -4 -3 -13 -24 -19 -47 -7 -23 -19 -49 -27 -57 -8 -8 -15 -19 -15 -23 0
-5 -14 -25 -31 -44 -17 -19 -38 -43 -47 -55 -10 -11 -30 -29 -47 -40 -16 -10
-39 -27 -49 -36 -11 -10 -24 -18 -28 -18 -8 0 -17 -19 -32 -67 -6 -19 -1 -23
63 -37 39 -9 99 -16 134 -16 61 0 66 2 100 38 82 85 111 122 132 166 10 20 21
36 26 36 5 0 9 8 9 18 0 10 4 22 9 27 4 6 14 32 20 60 7 27 16 52 21 55 11 7
30 147 30 228 0 61 -3 69 -30 95 -37 35 -83 49 -132 41 -36 -5 -38 -4 -38 20
0 21 5 26 25 26 24 0 65 31 65 49 0 19 -23 71 -31 71 -5 0 -9 6 -9 14 0 20
-12 26 -39 19 -18 -5 -22 -11 -18 -31 6 -29 -1 -52 -14 -52 -5 0 -9 7 -9 15 0
8 -9 23 -20 32 -27 24 -25 42 7 54 15 6 30 14 33 18 3 5 25 15 50 24 54 18 60
35 26 72 -15 16 -26 31 -26 34 0 6 -49 65 -68 83 -65 60 -86 78 -94 78 -9 0 9
36 31 59 15 16 8 84 -9 89 -12 4 -14 32 -2 32 4 0 16 29 26 65 10 36 22 65 25
65 9 0 51 78 51 95 0 12 -29 25 -56 25 -8 0 -10 -15 -6 -46 l5 -46 -28 28 -28
28 -12 -34 -12 -35 36 -6 c32 -6 34 -7 14 -14 -13 -4 -23 -11 -23 -16 0 -5
-20 -9 -45 -9 -25 0 -45 4 -45 9 0 5 -9 11 -20 14 -14 3 -20 14 -20 31 0 19 5
26 20 26 11 0 20 -7 20 -15 0 -29 19 -15 26 19 11 61 -23 76 -64 29 -15 -19
-25 -24 -28 -16 -13 31 -42 56 -57 50 -13 -5 -17 -19 -16 -54 0 -40 2 -44 10
-25 12 31 44 25 44 -8 0 -20 -7 -27 -36 -34 -68 -17 -139 11 -139 54 0 18 3
18 28 7 15 -6 30 -16 34 -22 4 -5 8 14 8 42 0 52 0 52 -26 43 -14 -6 -29 -10
-34 -10 -15 0 2 40 23 55 20 14 15 15 -53 15 -61 -1 -72 -3 -59 -13z m359
-317 c19 -7 41 -20 48 -28 15 -20 16 -64 0 -80 -14 -14 -54 -16 -62 -3 -3 5
-21 12 -40 15 -19 4 -36 11 -38 16 -5 16 -104 30 -206 30 -97 0 -222 -16 -222
-29 0 -4 -25 -15 -55 -25 -44 -16 -57 -17 -70 -6 -8 7 -15 18 -15 25 0 8 -5
15 -11 17 -7 2 -1 16 15 33 43 47 105 55 381 51 161 -2 251 -7 275 -16z m-324
-136 c2 -50 10 -65 29 -57 10 3 15 20 15 54 0 46 2 49 25 49 23 0 25 -3 25
-51 0 -67 -26 -93 -84 -86 -48 7 -56 18 -56 85 0 50 2 53 23 50 18 -2 22 -10
23 -44z m170 17 c-3 -9 -8 -34 -11 -56 -4 -22 -9 -48 -12 -57 -5 -21 -29 -24
-36 -5 -7 19 14 131 26 139 17 10 38 -3 33 -21z m-259 -5 c15 -17 22 -41 25
-78 l3 -53 -55 2 c-30 0 -56 6 -58 12 -2 6 -10 11 -18 11 -23 0 -37 49 -23 82
14 35 34 47 75 48 20 0 38 -8 51 -24z m401 -28 c7 -7 12 -23 12 -36 0 -22 3
-24 33 -18 17 3 38 2 46 -3 12 -8 12 -12 -2 -26 -10 -9 -17 -20 -17 -24 0 -5
-12 -20 -27 -35 -14 -14 -23 -29 -20 -32 3 -4 38 1 78 10 39 9 75 14 80 11 12
-8 -22 -95 -48 -123 -7 -7 -13 -20 -13 -28 0 -8 -4 -12 -10 -9 -5 3 -10 20
-10 36 0 36 -20 59 -50 59 -14 0 -24 8 -27 20 -3 11 -16 23 -30 26 -19 5 -21
8 -10 18 25 20 29 46 7 46 -11 0 -20 7 -20 15 0 22 -17 18 -23 -5 -3 -12 -14
-20 -26 -20 -30 0 -27 35 4 64 14 13 25 28 25 33 0 10 21 33 30 33 3 0 11 -5
18 -12z m-634 -87 c-5 -22 1 -34 23 -57 16 -16 28 -35 25 -42 -4 -13 -42 -17
-42 -4 0 16 -53 67 -57 55 -3 -7 -13 -13 -24 -13 -26 0 -26 40 1 47 11 3 20
11 20 18 0 13 40 35 52 28 4 -2 5 -16 2 -32z m336 -296 l0 -265 -225 0 -225 0
0 48 c0 59 25 165 39 170 6 2 11 10 11 19 0 19 31 76 48 86 6 4 12 14 12 20 0
11 39 50 120 121 8 7 33 20 55 27 22 8 42 17 45 20 7 10 40 17 83 18 l37 1 0
-265z m140 246 c3 -5 21 -13 41 -20 20 -6 49 -22 63 -34 62 -51 112 -104 126
-132 8 -16 21 -36 27 -43 7 -7 18 -32 25 -55 6 -23 16 -44 20 -48 10 -6 28
-101 28 -145 l0 -34 -220 0 -220 0 0 266 0 267 52 -7 c29 -4 55 -11 58 -15z
m-567 -33 c12 -6 28 -19 35 -30 7 -10 20 -18 28 -18 8 0 14 -9 14 -19 0 -24
-29 -36 -36 -16 -4 8 -12 15 -19 15 -6 0 -20 9 -30 20 -10 11 -24 20 -32 20
-14 0 -18 22 -6 33 9 10 21 9 46 -5z m-2 -88 c27 -27 39 -70 21 -70 -4 0 -12
-10 -17 -22 -11 -26 -33 -32 -81 -24 -28 6 -34 12 -40 41 -7 40 2 75 21 75 7
0 15 7 19 15 9 24 47 17 77 -15z m1079 -407 c0 -55 -11 -73 -40 -73 -21 0 -30
7 -40 30 -9 21 -19 30 -36 30 -17 0 -24 6 -24 20 0 18 7 20 70 20 70 0 70 0
70 -27z m-17 -103 c5 -4 7 -25 5 -46 -2 -32 -7 -40 -25 -42 -18 -3 -23 2 -24
20 -1 17 -3 18 -6 6 -2 -10 -13 -18 -24 -18 -14 0 -19 8 -20 28 l-2 27 -4 -28
c-4 -22 -9 -28 -26 -25 -19 3 -22 8 -18 43 1 22 8 43 15 48 13 8 117 -2 129
-13z m-90 -101 c20 -5 37 -14 37 -19 0 -6 9 -10 20 -10 20 0 26 -16 12 -36 -4
-6 -25 -16 -47 -22 -35 -9 -37 -11 -18 -17 25 -8 38 -34 24 -48 -11 -11 -111
19 -111 34 0 5 -7 9 -15 9 -22 0 -18 18 5 25 11 3 20 11 20 16 0 5 9 9 19 9
30 0 34 17 6 24 -24 6 -33 25 -18 39 9 9 22 9 66 -4z m-78 -148 c3 -5 -4 -12
-15 -16 -23 -7 -27 -25 -5 -25 8 0 15 5 15 10 0 6 10 10 23 10 46 0 62 -81 18
-93 -24 -6 -43 6 -38 24 2 8 2 11 0 7 -9 -15 -34 -8 -58 17 -30 29 -31 33 -3
56 23 20 53 25 63 10z m-5 -168 c0 -18 -41 -53 -63 -53 -10 0 -21 9 -24 20 -3
10 -14 22 -26 26 -18 6 -18 7 -4 16 10 5 17 16 17 24 0 14 -2 14 -16 0 -20
-20 -33 -20 -41 0 -4 10 1 22 10 29 10 7 17 17 17 23 0 6 8 12 18 14 18 4 111
-78 112 -99z"/>
<path d="M2582 3488 c-16 -16 -15 -47 2 -54 19 -7 56 13 56 31 0 8 -9 19 -19
25 -24 13 -24 13 -39 -2z"/>
<path d="M2673 3313 c-27 -5 -40 -33 -15 -33 10 0 25 9 35 20 9 11 13 19 9 19
-4 -1 -17 -4 -29 -6z"/>
<path d="M2577 3263 c-4 -3 -7 -15 -7 -25 0 -23 -16 -23 -29 0 -10 15 -10 15
-11 -3 0 -12 5 -26 12 -33 16 -16 5 -25 -32 -26 -38 -1 -40 -15 -2 -18 43 -2
76 3 87 13 5 5 18 9 30 9 15 0 17 -2 6 -9 -18 -12 2 -23 26 -14 19 7 53 41 53
53 0 4 -6 8 -12 7 -7 0 -30 1 -50 1 -33 2 -38 5 -38 27 0 24 -18 34 -33 18z"/>
<path d="M2673 3253 c9 -2 23 -2 30 0 6 3 -1 5 -18 5 -16 0 -22 -2 -12 -5z"/>
<path d="M2710 3191 c0 -5 -3 -16 -6 -25 -4 -11 -1 -16 10 -16 10 0 16 9 16
25 0 14 -4 25 -10 25 -5 0 -10 -4 -10 -9z"/>
<path d="M2429 3125 c-14 -14 5 -55 30 -64 27 -10 23 -12 -29 -15 -8 -1 -15
-8 -15 -16 0 -11 13 -16 49 -18 39 -3 52 1 68 17 26 28 68 29 61 1 -4 -14 0
-20 10 -20 26 0 47 12 47 26 0 8 10 14 24 14 16 0 23 -5 22 -17 0 -10 7 -19
17 -21 12 -3 17 3 17 21 0 14 -6 28 -12 30 -10 4 -10 6 0 6 14 1 17 31 2 31
-6 0 -13 -7 -16 -15 -7 -17 -54 -21 -54 -5 0 6 -24 10 -54 10 -45 0 -54 3 -59
20 -3 12 -14 20 -27 20 -13 0 -24 -8 -27 -20 -7 -26 -32 -26 -41 0 -4 12 -10
18 -13 15z"/>
<path d="M2610 3122 c0 -12 67 -28 77 -18 10 10 -2 16 -41 23 -23 3 -36 2 -36
-5z"/>
<path d="M2377 2993 c-11 -17 8 -50 33 -58 33 -10 25 -37 -10 -33 -16 1 -30
-2 -30 -7 -1 -17 101 -17 151 -1 52 17 93 22 71 8 -7 -5 -10 -16 -6 -25 7 -18
24 -23 24 -7 0 6 6 10 14 10 8 0 16 4 18 8 2 5 16 12 31 16 17 4 26 3 23 -3
-3 -5 -3 -16 0 -25 5 -13 8 -13 20 -1 18 17 18 21 -3 45 -13 15 -31 20 -68 22
-39 1 -43 2 -16 5 26 3 31 7 20 14 -10 6 -5 9 19 9 17 0 32 5 32 10 0 6 -25
10 -55 10 -30 0 -55 -4 -55 -10 0 -5 10 -11 23 -11 21 -1 -8 -9 -92 -26 -29
-5 -33 -4 -28 9 3 9 0 24 -7 34 -16 22 -46 12 -46 -16 0 -34 -44 -22 -52 15
-2 14 -6 16 -11 8z"/>
<path d="M2828 3333 c-16 -4 -18 -26 -20 -219 -2 -118 -1 -219 0 -224 2 -6 10
-10 17 -10 7 0 16 -6 19 -12 5 -10 7 -10 12 0 4 7 27 12 64 12 37 0 60 -5 64
-12 5 -10 7 -10 12 0 7 15 144 17 144 2 0 -16 37 -12 44 5 3 9 -1 41 -9 72 -8
32 -15 65 -15 75 0 10 -4 18 -9 18 -4 0 -16 20 -25 45 -10 25 -22 45 -27 45
-5 0 -9 7 -9 14 0 8 -11 27 -25 42 -20 22 -28 25 -38 15 -9 -10 -8 -15 6 -25
9 -7 17 -22 17 -32 0 -11 9 -25 20 -32 11 -7 20 -17 20 -23 0 -15 26 -39 35
-31 3 4 3 -6 -1 -22 -5 -19 -3 -27 4 -22 6 4 8 -2 5 -15 -4 -15 0 -27 12 -35
11 -8 13 -14 7 -14 -7 0 -12 -8 -12 -19 0 -27 -20 -39 -66 -39 -28 -1 -49 6
-63 20 l-22 20 -18 -21 c-14 -16 -30 -21 -64 -21 l-46 0 -6 44 c-4 24 -4 72
-1 107 6 82 6 72 0 160 -5 62 -3 77 9 82 18 7 90 -28 125 -60 13 -12 28 -20
33 -17 12 7 -20 54 -36 54 -7 0 -18 7 -26 16 -7 8 -20 13 -30 11 -12 -3 -16 0
-12 9 6 15 -39 30 -58 18 -7 -4 -9 -3 -5 4 8 13 -3 20 -26 15z m12 -93 c0 -5
-4 -10 -10 -10 -5 0 -10 5 -10 10 0 6 5 10 10 10 6 0 10 -4 10 -10z m0 -100
c0 -5 -4 -10 -10 -10 -5 0 -10 5 -10 10 0 6 5 10 10 10 6 0 10 -4 10 -10z
m320 -160 c0 -5 -4 -10 -10 -10 -5 0 -10 5 -10 10 0 6 5 10 10 10 6 0 10 -4
10 -10z m-320 -40 c0 -5 -4 -10 -10 -10 -5 0 -10 5 -10 10 0 6 5 10 10 10 6 0
10 -4 10 -10z"/>
<path d="M2935 3210 c-17 -7 -17 -9 -2 -9 20 -1 23 -17 5 -24 -8 -3 -5 -6 6
-6 12 -1 16 -6 12 -17 -3 -9 -6 -18 -6 -20 0 -2 -7 -4 -15 -4 -8 0 -15 7 -15
15 0 9 -7 18 -15 21 -8 4 -15 15 -15 25 0 19 -15 26 -24 11 -8 -13 5 -52 18
-52 6 0 16 -12 23 -26 15 -33 1 -64 -29 -64 -16 0 -19 -3 -11 -11 9 -9 22 -8
51 4 33 13 42 14 51 3 7 -9 6 -18 -4 -33 -8 -12 -12 -28 -9 -37 4 -11 0 -16
-14 -16 -11 0 -23 6 -25 13 -3 6 -6 2 -6 -10 -1 -16 5 -23 18 -23 32 0 51 11
51 30 0 26 28 33 42 10 7 -11 21 -20 31 -20 13 0 17 -5 14 -15 -9 -21 11 -29
28 -11 17 17 20 45 5 47 -5 1 -14 2 -19 3 -19 2 -23 16 -5 17 11 0 14 3 6 6
-7 3 -26 17 -41 31 -24 22 -30 37 -33 85 -3 41 -10 61 -24 72 -22 16 -22 17
-49 5z"/>
<path d="M3020 3111 c0 -18 12 -41 21 -41 15 0 10 37 -6 44 -8 3 -15 1 -15 -3z"/>
<path d="M2257 3203 c-10 -10 -8 -41 3 -48 20 -12 50 6 50 31 0 18 -5 24 -23
24 -13 0 -27 -3 -30 -7z"/>
<path d="M2227 3953 c-15 -14 -6 -41 15 -46 29 -8 38 -1 38 29 0 18 -5 24 -23
24 -13 0 -27 -3 -30 -7z"/>
<path d="M3244 3945 c-10 -25 4 -47 28 -43 17 2 24 11 26 31 3 23 0 27 -23 27
-14 0 -28 -7 -31 -15z"/>
<path d="M3776 3638 c-3 -7 -9 -28 -15 -47 -6 -19 -11 -41 -10 -50 0 -9 7 6
16 34 8 27 22 55 31 62 16 11 16 12 -1 13 -10 0 -19 -6 -21 -12z"/>
<path d="M3629 3573 c-9 -2 -22 -15 -29 -28 -7 -14 -17 -25 -22 -25 -4 0 -8
-9 -8 -20 0 -11 5 -20 10 -20 6 0 10 -6 10 -14 0 -14 21 -26 44 -26 8 0 28 13
46 29 29 25 32 32 26 63 -5 25 -13 38 -29 42 -12 3 -24 5 -27 5 -3 -1 -12 -3
-21 -6z m61 -56 c0 -13 -24 -34 -45 -40 -47 -15 -61 37 -16 59 24 12 61 1 61
-19z"/>
<path d="M3803 3533 c15 -10 27 -21 27 -25 0 -5 9 -8 20 -8 11 0 20 6 20 14 0
16 -21 26 -65 32 l-30 5 28 -18z"/>
<path d="M3910 3489 c0 -25 15 -39 41 -39 16 0 29 5 29 10 0 6 -4 10 -10 10
-5 0 -7 6 -5 13 4 8 -5 12 -25 13 -16 1 -30 -2 -30 -7z"/>
<path d="M2816 2768 c7 -22 31 -47 47 -48 4 0 7 -7 7 -15 0 -11 -8 -15 -22
-13 -13 2 -25 -1 -28 -7 -8 -17 79 -17 128 -1 59 20 83 21 76 1 -5 -11 1 -15
20 -15 15 0 29 7 32 15 4 8 19 15 35 15 22 0 27 -4 22 -16 -4 -12 -1 -15 13
-12 10 2 20 13 22 24 3 19 -4 23 -61 33 -35 6 -89 11 -120 11 -50 0 -56 2 -59
23 -4 29 -32 29 -36 -1 -5 -31 -46 -27 -50 6 -2 12 -10 22 -18 22 -11 0 -13
-6 -8 -22z"/>
<path d="M3061 2781 c-6 -4 -7 -12 0 -21 6 -11 11 -12 17 -4 4 7 16 14 27 16
17 3 16 5 -7 9 -15 4 -31 3 -37 0z"/>
<path d="M2363 2762 c-3 -8 -1 -17 5 -21 7 -4 15 -29 18 -57 4 -27 10 -51 13
-54 3 -3 12 -23 20 -45 12 -35 56 -86 119 -137 11 -9 40 -20 64 -25 34 -7 44
-13 46 -31 2 -12 -2 -22 -8 -22 -8 0 -10 8 -7 21 4 15 1 19 -11 17 -9 -2 -18
-13 -20 -26 -3 -20 1 -22 37 -22 33 0 41 4 41 18 0 10 3 21 6 25 3 3 8 68 11
144 3 108 7 141 19 150 14 10 13 14 -5 32 -12 12 -21 28 -21 37 0 14 -8 16
-57 11 -32 -3 -59 -11 -61 -17 -4 -12 -132 -14 -132 -1 0 16 -71 19 -77 3z
m297 -21 c0 -5 -6 -11 -12 -14 -10 -3 -10 -9 -3 -23 6 -11 8 -32 5 -49 -6 -26
-8 -28 -15 -11 -5 11 -17 28 -27 38 -21 21 -24 54 -5 61 21 9 57 7 57 -2z
m-70 -63 c13 -24 29 -47 37 -51 7 -4 13 -21 13 -38 0 -27 -2 -29 -20 -19 -11
6 -20 17 -20 24 0 7 -10 24 -22 38 -48 53 -60 88 -30 88 11 0 28 -17 42 -42z
m-79 12 c10 -6 19 -16 19 -23 0 -7 13 -27 29 -44 16 -18 35 -46 42 -62 8 -17
17 -31 21 -31 5 0 8 -12 8 -26 0 -35 -17 -27 -43 21 -12 22 -28 44 -34 48 -7
4 -13 14 -13 22 0 8 -8 20 -19 27 -23 17 -55 78 -41 78 6 0 20 -5 31 -10z
m-11 -70 c9 -8 24 -32 33 -53 10 -20 22 -37 27 -37 10 0 42 -61 36 -67 -8 -9
-52 21 -86 58 -58 62 -61 67 -67 122 l-5 52 23 -29 c13 -16 31 -37 39 -46z"/>
<path d="M2980 2760 c0 -5 5 -10 10 -10 6 0 10 5 10 10 0 6 -4 10 -10 10 -5 0
-10 -4 -10 -10z"/>
<path d="M2280 2685 c-7 -8 -21 -15 -31 -15 -11 0 -19 -4 -19 -10 0 -14 -27
-12 -34 3 -5 10 -7 10 -12 0 -3 -7 -23 -13 -46 -13 -33 0 -39 -3 -35 -17 3
-10 11 -42 17 -70 7 -29 15 -53 19 -53 4 0 14 -19 21 -42 7 -24 18 -48 24 -53
6 -6 20 -25 30 -44 21 -38 44 -67 94 -117 17 -18 32 -40 32 -49 0 -8 4 -15 9
-15 5 0 12 -11 15 -24 3 -14 15 -28 26 -31 11 -3 20 -11 20 -16 0 -5 9 -9 20
-9 11 0 20 5 20 10 0 6 11 10 25 10 14 0 25 -3 25 -8 0 -4 30 -16 68 -26 37
-11 69 -23 72 -27 3 -4 53 -15 112 -25 93 -15 117 -16 179 -5 45 9 77 20 87
32 9 10 22 19 29 19 6 0 27 14 45 30 l32 30 -33 0 c-44 0 -165 21 -171 29 -3
4 -40 16 -82 26 -43 10 -78 22 -78 26 0 3 -27 14 -60 23 -33 9 -60 21 -60 26
0 5 -7 10 -17 12 -9 2 -21 19 -28 38 -6 19 -21 39 -33 45 -12 5 -22 13 -22 17
0 5 -16 8 -35 8 -19 0 -35 5 -35 11 0 5 -4 8 -9 4 -5 -3 -12 3 -15 12 -4 10
-19 33 -36 51 -16 19 -34 49 -40 68 -6 19 -16 34 -20 34 -5 0 -15 27 -22 60
-12 60 -25 73 -48 45z m8 -65 c13 -10 26 -34 29 -53 4 -28 0 -39 -21 -60 -35
-35 -68 -34 -106 3 -42 41 -37 89 11 116 33 18 60 17 87 -6z m59 -125 c13 -14
12 -17 -8 -34 -28 -23 -17 -45 20 -38 15 3 33 2 41 -3 11 -7 9 -14 -13 -34
-14 -13 -35 -27 -46 -31 -10 -3 -22 -12 -25 -20 -8 -22 -33 -18 -39 5 -3 13 2
25 15 34 17 12 18 17 7 29 -11 11 -19 12 -37 4 -15 -7 -26 -7 -33 0 -17 17 0
38 46 61 25 12 45 26 45 32 0 14 9 12 27 -5z m198 -129 c33 -14 52 -52 20 -40
-8 4 -15 10 -15 15 0 5 -7 9 -15 9 -8 0 -15 -4 -15 -10 0 -5 -6 -10 -14 -10
-19 0 -24 -18 -18 -58 5 -33 4 -34 -29 -30 -30 3 -34 0 -43 -31 -8 -29 -7 -35
15 -52 22 -17 23 -19 4 -19 -30 0 -65 28 -65 53 0 12 6 45 12 74 9 39 17 53
30 53 9 0 21 6 25 13 7 10 61 46 71 47 1 0 18 -7 37 -14z m118 -160 c27 -12
22 -54 -7 -62 -38 -9 -61 -1 -64 24 -6 42 24 58 71 38z m192 -91 c0 -27 -3
-30 -30 -30 -21 0 -31 5 -33 18 -6 33 6 49 35 45 24 -3 28 -8 28 -33z"/>
<path d="M2214 2576 c-10 -26 4 -46 31 -46 23 0 26 4 23 28 -3 31 -44 45 -54
18z"/>
<path d="M2882 2630 c-25 -24 -30 -25 -34 -5 -2 10 -7 12 -18 5 -12 -7 -10
-13 12 -33 30 -28 27 -40 -8 -31 -20 5 -24 2 -24 -15 0 -18 5 -20 51 -17 28 2
55 9 59 15 3 7 24 14 46 16 21 3 33 3 27 -1 -21 -9 -15 -34 8 -34 12 0 23 8
26 19 3 12 16 21 34 23 26 4 28 2 23 -19 -4 -16 -2 -23 9 -23 13 0 32 39 22
48 -2 2 -22 6 -44 9 -23 3 -41 10 -41 14 0 5 -22 9 -49 9 -40 0 -50 3 -54 20
-3 11 -9 20 -14 20 -5 0 -19 -9 -31 -20z"/>
<path d="M3020 2640 c-11 -7 -4 -10 25 -9 31 0 36 2 20 9 -26 11 -28 11 -45 0z"/>
<path d="M2884 2512 c-6 -4 -14 -17 -18 -30 -9 -26 -26 -20 -26 9 0 11 -7 19
-16 19 -20 0 -10 -34 17 -61 27 -27 24 -42 -6 -37 -19 4 -25 1 -25 -13 0 -21
25 -26 34 -6 5 10 7 10 12 0 3 -7 12 -13 19 -13 7 0 16 6 19 13 5 10 7 10 12
0 7 -15 64 -18 64 -4 0 5 10 11 23 13 35 5 35 45 0 59 -15 6 -38 8 -50 6 -17
-3 -23 1 -25 21 -3 27 -16 36 -34 24z m116 -86 c0 -2 -9 -6 -20 -9 -11 -3 -20
-1 -20 4 0 5 9 9 20 9 11 0 20 -2 20 -4z m-70 -16 c0 -5 -2 -10 -4 -10 -3 0
-8 5 -11 10 -3 6 -1 10 4 10 6 0 11 -4 11 -10z"/>
<path d="M2980 2500 c0 -5 16 -10 35 -10 19 0 35 5 35 10 0 6 -16 10 -35 10
-19 0 -35 -4 -35 -10z"/>
<path d="M3055 2470 c-3 -5 -1 -10 4 -10 6 0 11 5 11 10 0 6 -2 10 -4 10 -3 0
-8 -4 -11 -10z"/>
<path d="M4060 2318 c-13 -5 -28 -14 -32 -21 -14 -22 -8 -82 11 -104 19 -23
61 -32 61 -13 0 6 6 10 14 10 18 0 26 22 26 70 0 51 -33 76 -80 58z m60 -70
c0 -41 -24 -57 -60 -38 -30 16 -23 86 9 92 30 7 51 -15 51 -54z"/>
<path d="M4582 2319 c-13 -5 -26 -18 -29 -29 -3 -11 -9 -20 -14 -20 -5 0 -9
-13 -9 -30 0 -16 3 -30 8 -30 4 0 15 -13 24 -29 20 -36 73 -50 119 -31 35 15
49 44 49 100 0 31 -6 43 -29 59 -31 22 -80 26 -119 10z m106 -34 c30 -34 28
-71 -4 -100 -60 -55 -137 -6 -119 76 12 52 86 67 123 24z"/>
<path d="M4168 2147 c-48 -19 -42 -85 11 -107 33 -13 65 -9 95 13 15 11 17 21
12 48 -5 28 -13 37 -39 47 -38 14 -42 14 -79 -1z m76 -23 c19 -18 20 -28 6
-55 -21 -38 -80 -12 -80 36 0 35 46 47 74 19z"/>
<path d="M2060 2122 c0 -5 -23 -14 -50 -21 -28 -7 -56 -18 -63 -25 -7 -6 -30
-20 -52 -31 -22 -11 -44 -26 -48 -32 -4 -7 -14 -13 -21 -13 -7 0 -24 -10 -38
-23 -14 -13 -41 -31 -62 -41 -20 -9 -36 -21 -36 -25 0 -4 -18 -16 -40 -26 -22
-10 -40 -21 -40 -24 0 -4 -20 -15 -45 -26 -25 -10 -49 -23 -53 -30 -8 -12
-104 -45 -133 -45 -11 0 -19 -4 -19 -10 0 -5 -21 -10 -47 -10 l-48 -1 28 -17
c15 -9 27 -20 27 -24 0 -4 18 -17 40 -29 22 -13 40 -26 40 -29 0 -4 21 -15 46
-25 41 -16 55 -16 116 -5 37 6 74 17 81 23 6 7 37 23 67 37 30 14 65 35 79 48
13 12 30 22 37 22 8 0 14 4 14 10 0 5 16 17 35 26 19 9 35 19 35 23 0 4 21 18
48 31 26 13 49 26 52 30 3 4 28 15 55 25 28 11 52 22 55 25 3 4 24 10 48 14
50 7 58 -11 16 -39 -91 -59 -109 -104 -73 -176 13 -24 27 -47 33 -51 5 -3 11
-12 13 -20 14 -65 28 -114 33 -118 3 -3 14 -25 23 -50 14 -36 25 -49 60 -65
23 -11 44 -22 47 -25 8 -10 108 -29 205 -40 240 -27 657 1 703 47 7 7 18 13
24 13 6 0 26 15 43 33 24 24 36 50 45 90 6 32 16 57 21 57 5 0 9 8 9 17 0 20
39 103 57 121 7 7 13 33 13 57 0 33 -5 46 -22 57 -41 27 -88 72 -88 85 0 12
69 7 80 -6 3 -3 31 -15 63 -25 31 -11 57 -22 57 -26 0 -4 18 -15 40 -25 23
-10 44 -24 48 -30 4 -6 24 -19 45 -29 20 -9 37 -20 37 -24 0 -4 15 -16 33 -27
17 -10 34 -21 37 -25 3 -3 28 -17 55 -30 28 -13 52 -27 55 -31 7 -11 117 -39
151 -39 29 0 95 25 101 38 1 4 20 18 41 31 20 12 37 27 37 32 0 5 6 9 14 9 7
0 19 7 26 15 11 13 6 15 -34 15 -25 0 -46 4 -46 9 0 4 -27 14 -61 21 -33 7
-67 19 -75 27 -7 8 -34 23 -59 34 -25 11 -45 23 -45 28 0 4 -18 15 -40 25 -22
10 -40 21 -40 25 0 4 -18 16 -40 27 -22 10 -40 22 -40 26 0 4 -21 17 -47 30
-26 13 -55 31 -65 41 -10 9 -25 17 -33 17 -9 0 -18 6 -21 14 -3 8 -32 22 -65
32 -32 10 -59 21 -59 26 0 4 -31 8 -70 8 -40 0 -70 -4 -70 -10 0 -5 -7 -10
-16 -10 -32 0 -75 -36 -96 -80 -12 -25 -24 -47 -28 -50 -3 -3 -12 -21 -20 -40
-7 -19 -19 -40 -26 -46 -20 -16 -35 -64 -28 -87 9 -27 54 -72 81 -81 11 -4 31
-15 43 -26 12 -10 27 -21 32 -22 6 -2 8 -13 4 -25 -5 -16 -23 -25 -71 -37 -35
-9 -73 -16 -84 -16 -11 0 -21 -4 -23 -9 -4 -12 -213 -31 -349 -31 -128 0 -331
18 -339 30 -3 4 -36 13 -74 21 -38 7 -75 19 -82 26 -7 7 -17 13 -23 13 -6 0
-11 5 -11 10 0 6 4 10 8 10 5 0 17 8 28 18 11 9 37 26 59 37 56 29 85 61 85
95 0 17 -4 30 -8 30 -4 0 -14 16 -21 35 -7 19 -18 40 -24 47 -7 7 -21 33 -32
58 -11 25 -22 47 -26 50 -3 3 -11 15 -18 27 -6 12 -27 27 -46 34 -19 7 -35 17
-35 21 0 4 -31 8 -70 8 -38 0 -70 -4 -70 -8z m1453 -53 c21 -23 27 -76 10 -87
-5 -4 -12 -14 -15 -23 -4 -9 -21 -19 -39 -21 -38 -6 -119 10 -119 23 0 5 4 9
9 9 5 0 12 12 15 28 4 15 12 44 17 66 l10 39 47 -7 c27 -4 53 -15 65 -27z
m-1449 -24 c4 -19 11 -35 16 -35 4 0 11 -14 15 -31 9 -42 -30 -79 -84 -79 -39
0 -50 12 -66 67 -3 13 -13 30 -22 39 -14 13 -14 17 -2 25 21 13 43 6 47 -15 2
-11 8 -24 13 -30 5 -6 16 -20 23 -30 20 -29 50 -14 41 21 -4 16 -11 30 -16 33
-5 3 -11 20 -15 37 -5 25 -3 32 12 35 27 6 31 2 38 -37z m1553 -17 c4 -7 17
-18 28 -24 25 -14 31 -56 11 -74 -10 -8 -16 -29 -16 -56 0 -29 -4 -44 -13 -44
-22 0 -37 23 -37 57 0 37 -24 47 -33 14 -3 -14 -11 -18 -26 -14 -20 5 -30 33
-12 33 4 0 16 20 26 45 25 66 54 91 72 63z m-1737 -63 c0 -15 -6 -25 -14 -25
-8 0 -18 -4 -21 -10 -4 -7 3 -7 20 0 42 16 63 -12 30 -40 -22 -18 -11 -24 14
-8 15 9 23 10 32 1 18 -18 3 -41 -38 -58 -44 -19 -60 -14 -69 20 -3 14 -10 25
-15 25 -13 0 -41 59 -33 71 9 15 66 49 82 49 6 0 12 -11 12 -25z m1914 -51
c32 -31 38 -53 26 -90 -6 -19 -20 -39 -30 -44 -43 -23 -110 -4 -129 37 -16 35
-14 48 16 82 21 24 36 31 65 31 20 0 44 -7 52 -16z m-1504 -3 c0 -5 16 -12 35
-15 78 -15 84 -95 10 -124 -22 -9 -51 -26 -65 -39 -14 -13 -27 -23 -31 -23 -3
0 -11 -11 -17 -25 -11 -23 -15 -24 -34 -14 -49 25 -84 83 -71 116 7 19 71 83
82 83 4 0 18 11 31 24 25 24 60 34 60 17z m990 -1 c0 -6 11 -15 25 -20 14 -5
28 -17 31 -25 4 -8 12 -15 19 -15 19 0 44 -33 51 -68 8 -41 -14 -89 -49 -103
-26 -11 -30 -9 -54 20 -14 17 -31 31 -37 31 -6 0 -19 9 -29 20 -9 11 -23 20
-31 20 -8 0 -28 12 -45 28 -43 39 -34 67 30 89 27 10 49 21 49 25 0 5 9 8 20
8 11 0 20 -5 20 -10z m-1540 -45 c5 -14 14 -25 19 -25 14 0 42 -66 35 -84 -3
-9 -9 -16 -11 -16 -9 0 -53 54 -53 65 0 6 -9 18 -20 28 -11 9 -20 26 -20 37 0
30 38 26 50 -5z m2154 -21 c16 -6 23 -34 8 -34 -4 0 -16 -20 -26 -44 -10 -24
-26 -50 -35 -58 -16 -14 -19 -13 -29 2 -8 13 -7 25 4 46 8 16 18 31 22 34 4 3
13 17 21 33 8 15 16 27 17 27 1 0 9 -3 18 -6z m-2247 -30 c30 -8 48 -57 37
-101 -7 -28 -17 -39 -48 -51 -38 -15 -40 -15 -58 9 -10 13 -23 30 -28 36 -28
34 -33 83 -9 83 6 0 17 7 25 15 16 16 44 19 81 9z m2330 -13 c10 -10 29 -21
43 -25 14 -3 31 -10 39 -15 22 -14 -10 -41 -45 -38 -19 1 -31 -4 -38 -19 -20
-38 -45 -56 -67 -49 -12 4 -17 10 -12 14 6 3 18 23 28 44 15 32 16 42 5 62
-22 42 13 62 47 26z m-1594 -237 c30 -5 37 -11 37 -29 0 -18 -5 -22 -27 -19
l-28 4 28 -12 c17 -8 27 -19 27 -34 0 -18 -4 -20 -26 -16 -19 3 -25 1 -20 -7
4 -6 15 -11 25 -11 17 0 37 -38 26 -48 -2 -2 -27 2 -54 9 -42 10 -51 17 -51
34 0 12 -3 50 -7 85 -6 58 -5 62 13 57 10 -3 36 -9 57 -13z m833 -141 c-7 -18
-45 -17 -52 2 -4 8 -12 15 -20 15 -8 0 -14 5 -14 10 0 6 -4 10 -10 10 -5 0
-10 -14 -10 -31 0 -30 -19 -59 -39 -59 -7 0 -11 26 -11 68 0 120 14 136 71 80
l33 -33 10 42 c5 26 15 43 25 45 13 3 17 -8 19 -66 2 -38 1 -75 -2 -83z m-686
117 c0 -5 11 -10 25 -10 18 0 25 -5 25 -18 0 -13 -7 -18 -22 -18 -21 1 -23 -4
-26 -61 -3 -59 -4 -63 -27 -63 -23 0 -24 4 -27 68 -3 61 -5 67 -25 70 -15 2
-23 10 -23 23 0 16 7 19 50 19 28 0 50 -4 50 -10z m465 -20 c15 -6 29 -19 32
-30 3 -11 9 -20 14 -20 15 0 10 -40 -6 -56 -8 -8 -18 -22 -23 -31 -5 -9 -28
-17 -54 -20 -39 -5 -48 -2 -71 21 -20 20 -27 37 -27 65 0 33 5 42 33 60 36 23
63 26 102 11z m-262 -22 l22 -23 24 23 c13 12 35 22 48 22 22 0 23 -3 23 -80
0 -79 0 -80 -25 -80 -23 0 -25 4 -25 41 0 37 -1 39 -16 25 -20 -20 -43 -20
-50 -1 -12 30 -24 14 -24 -30 0 -35 -3 -43 -15 -39 -8 4 -15 12 -15 20 0 8 -4
14 -10 14 -5 0 -10 11 -10 25 0 14 5 25 10 25 6 0 10 7 10 15 0 8 -4 15 -10
15 -25 0 3 49 28 50 7 0 23 -10 35 -22z"/>
<path d="M3437 2043 c-4 -3 -7 -15 -7 -25 0 -10 -4 -18 -10 -18 -5 0 -10 -4
-10 -10 0 -13 36 -13 61 0 10 6 19 17 19 25 0 8 -9 19 -19 25 -23 12 -26 12
-34 3z"/>
<path d="M3712 1878 c-32 -32 8 -80 48 -58 34 18 19 70 -20 70 -9 0 -21 -5
-28 -12z"/>
<path d="M1580 1756 c0 -8 7 -22 16 -30 25 -26 44 -20 44 14 0 27 -3 30 -30
30 -19 0 -30 -5 -30 -14z"/>
<path d="M2914 1465 c-3 -14 -4 -32 0 -40 7 -20 66 -20 66 -1 0 8 6 17 13 20
10 5 10 7 0 12 -7 3 -13 12 -13 20 0 9 -11 14 -30 14 -23 0 -31 -5 -36 -25z"/>
<path d="M2680 1940 l0 -70 -34 0 c-28 0 -36 -5 -46 -30 -13 -32 -6 -95 12
-106 6 -4 17 1 23 10 12 15 13 15 19 0 3 -8 6 -22 6 -30 0 -8 11 -25 25 -38
14 -13 25 -29 25 -35 0 -16 46 -61 63 -61 13 0 28 24 41 63 3 9 12 17 20 17
14 0 36 54 36 88 0 17 27 15 34 -4 8 -20 26 -9 26 17 0 10 5 19 10 19 35 0
-17 84 -57 92 -14 2 -19 16 -23 58 l-5 55 -40 6 c-22 3 -61 9 -87 12 l-48 7 0
-70z m119 -13 c21 -26 24 -75 7 -102 -20 -30 -20 -45 -1 -45 8 0 15 5 15 10 0
6 11 23 24 37 22 24 28 25 50 15 19 -9 26 -19 26 -41 0 -26 -3 -30 -27 -28
-23 2 -28 -3 -41 -45 -16 -50 -28 -60 -61 -51 -21 5 -30 43 -11 43 6 0 10 5
10 10 0 6 -9 10 -20 10 -16 0 -20 -7 -20 -30 0 -58 -52 -48 -66 13 -9 40 -26
57 -53 50 -18 -5 -21 -1 -21 24 0 22 7 33 26 43 31 17 56 5 64 -31 4 -15 14
-25 28 -27 28 -4 30 23 2 40 -27 17 -26 61 2 93 24 28 50 32 67 12z m-9 -292
c0 -18 -5 -25 -19 -25 -11 0 -23 5 -26 10 -11 18 3 40 25 40 15 0 20 -7 20
-25z"/>
<path d="M6360 2968 l0 -2598 60 0 60 0 0 2599 0 2598 -60 0 -60 0 0 -2599z"/>
<path d="M9533 4711 c-151 -52 -230 -192 -221 -390 4 -77 10 -108 33 -159 36
-80 111 -151 185 -175 100 -32 228 -17 310 37 l38 25 1 156 2 155 -126 0 -125
0 0 -35 0 -35 80 0 80 0 0 -105 0 -104 -32 -18 c-23 -12 -56 -18 -108 -18 -63
0 -82 4 -120 27 -81 47 -119 121 -127 246 -8 116 14 196 73 262 80 88 194 104
296 41 l52 -33 18 22 c24 30 23 35 -17 65 -71 55 -194 70 -292 36z"/>
<path d="M7560 4350 l0 -370 45 0 45 0 0 180 0 180 180 0 180 0 0 -180 0 -180
45 0 45 0 0 370 0 370 -45 0 -45 0 0 -155 0 -155 -180 0 -180 0 0 155 0 155
-45 0 -45 0 0 -370z"/>
<path d="M8300 4350 l0 -370 40 0 41 0 -3 309 c-2 170 -2 309 -1 308 1 -2 177
-469 195 -520 9 -23 15 -27 40 -24 30 3 32 7 122 248 50 135 96 258 101 274 7
20 9 -66 7 -283 l-4 -312 41 0 41 0 0 370 0 370 -54 0 -53 0 -100 -280 -100
-281 -100 278 -100 278 -56 3 -56 3 -1 -371z"/>
<path d="M14915 4682 c-3 -3 -5 -28 -5 -56 0 -84 -6 -96 -51 -96 -38 0 -39 -1
-39 -35 0 -34 1 -35 39 -35 l39 0 4 -197 c3 -175 5 -202 23 -230 34 -57 109
-77 197 -53 36 10 36 12 26 41 -10 29 -12 29 -58 23 -43 -6 -51 -4 -74 19
l-26 26 0 186 0 185 75 0 75 0 0 35 0 35 -75 0 -74 0 -3 77 -3 78 -32 1 c-18
1 -35 -1 -38 -4z"/>
<path d="M10181 4526 c-129 -47 -199 -217 -153 -376 21 -73 96 -150 165 -169
103 -29 218 9 277 91 76 104 70 283 -12 382 -61 74 -183 106 -277 72z m172
-82 c14 -10 38 -41 53 -68 53 -97 28 -253 -49 -308 -45 -32 -129 -32 -175 0
-113 81 -101 324 19 386 43 21 116 16 152 -10z"/>
<path d="M11295 4516 c-101 -48 -150 -133 -149 -261 1 -183 113 -295 281 -283
63 5 163 41 163 59 0 4 -8 17 -18 29 -18 22 -19 22 -51 5 -18 -9 -57 -19 -86
-22 -100 -10 -189 59 -202 156 l-6 41 192 0 191 0 0 53 c0 29 -7 76 -15 103
-36 122 -177 178 -300 120z m164 -64 c40 -20 71 -73 71 -119 l0 -33 -151 0
-151 0 6 31 c10 51 44 96 89 118 51 26 91 27 136 3z"/>
<path d="M11914 4521 c-17 -10 -45 -36 -62 -57 l-32 -39 0 53 0 52 -39 0 -40
0 -1 -275 -1 -275 46 0 45 0 0 182 0 181 29 46 c39 60 81 85 131 77 33 -5 38
-3 44 17 13 51 9 57 -41 57 -29 0 -60 -7 -79 -19z"/>
<path d="M12315 4520 c-22 -10 -55 -31 -72 -46 l-33 -27 0 42 0 41 -40 0 -39
0 2 -272 2 -273 43 -3 42 -3 0 198 0 199 33 31 c49 47 94 66 140 60 84 -11 95
-50 96 -314 l1 -173 41 0 40 0 -3 223 c-3 201 -5 226 -24 261 -11 22 -35 47
-54 58 -45 24 -123 23 -175 -2z"/>
<path d="M12920 4515 c-25 -15 -55 -36 -67 -47 l-23 -21 0 41 0 42 -40 0 -40
0 0 -275 0 -275 45 0 45 0 0 199 0 199 46 41 c52 45 100 59 143 41 54 -22 61
-55 61 -279 l0 -201 45 0 45 0 0 203 c0 228 -4 216 80 266 69 41 139 16 160
-57 5 -20 10 -121 10 -224 l0 -188 46 0 46 0 -4 213 c-3 203 -4 214 -28 261
-56 110 -189 116 -296 14 l-32 -30 -13 28 c-23 45 -62 67 -126 71 -48 3 -65 0
-103 -22z"/>
<path d="M13831 4526 c-54 -19 -112 -75 -140 -135 -21 -46 -26 -70 -25 -136 1
-183 113 -295 281 -283 63 5 163 41 163 59 0 4 -8 17 -18 29 -18 22 -19 22
-51 5 -18 -9 -57 -19 -86 -22 -100 -10 -189 59 -202 156 l-6 41 192 0 191 0 0
53 c0 114 -47 196 -132 231 -44 19 -119 20 -167 2z m148 -74 c40 -20 71 -73
71 -119 l0 -33 -151 0 -151 0 6 31 c10 52 46 100 90 120 52 23 92 24 135 1z"/>
<path d="M14445 4520 c-22 -10 -55 -31 -72 -46 l-33 -27 0 42 0 41 -40 0 -40
0 0 -275 0 -275 45 0 45 0 0 199 0 199 46 41 c72 63 154 67 198 8 19 -26 21
-44 24 -238 l4 -209 40 0 39 0 -3 223 c-3 194 -5 227 -22 260 -36 72 -145 99
-231 57z"/>
<path d="M10599 4483 c10 -26 56 -150 102 -275 l83 -228 50 0 51 0 94 263 c52
144 96 268 99 275 3 10 -6 12 -39 10 l-44 -3 -80 -239 -81 -238 -80 238 -81
239 -46 3 -47 3 19 -48z"/>
<path d="M9310 3065 c0 -368 2 -388 49 -430 16 -13 40 -20 84 -22 83 -5 91 2
82 66 -6 43 -12 54 -31 61 l-24 10 0 330 0 330 -80 0 -80 0 0 -345z"/>
<path d="M11240 3276 l0 -135 -42 24 c-115 66 -267 -5 -314 -148 -24 -71 -21
-188 6 -259 24 -65 77 -119 135 -138 56 -18 136 -8 184 23 50 33 51 33 51 2 0
-24 2 -25 70 -25 l70 0 0 395 0 395 -80 0 -80 0 0 -134z m-26 -237 c25 -20 26
-23 26 -134 l0 -113 -31 -26 c-57 -48 -136 -29 -165 40 -32 76 -7 214 43 243
31 18 98 13 127 -10z"/>
<path d="M7753 3341 c-148 -51 -231 -170 -239 -341 -5 -126 32 -225 113 -301
69 -65 125 -84 248 -84 95 0 104 2 170 35 l70 35 3 173 2 172 -135 0 -135 0 0
-65 0 -65 65 0 65 0 0 -70 0 -69 -42 -12 c-53 -14 -135 0 -179 32 -78 55 -105
227 -55 336 31 66 83 102 157 110 47 4 62 1 110 -25 l56 -29 42 48 41 48 -34
26 c-84 64 -217 83 -323 46z"/>
<path d="M8853 3346 c-94 -30 -177 -109 -214 -205 -17 -44 -22 -78 -23 -162
-1 -105 -1 -107 39 -185 30 -59 52 -87 88 -115 126 -95 309 -92 426 6 l31 27
-41 48 -41 48 -47 -29 c-89 -56 -175 -48 -234 21 -43 50 -57 98 -57 191 0 192
144 295 283 203 l40 -26 38 43 c21 24 38 50 39 56 0 17 -64 58 -119 78 -52 18
-150 19 -208 1z"/>
<path d="M9755 3166 c-63 -29 -112 -77 -138 -136 -29 -64 -29 -197 -1 -260 43
-95 143 -160 245 -160 111 0 192 47 244 141 27 49 30 62 30 149 0 87 -3 100
-30 149 -16 29 -45 66 -64 82 -75 62 -197 77 -286 35z m159 -112 c9 -3 26 -22
38 -42 18 -30 23 -52 23 -112 0 -60 -5 -82 -23 -112 -26 -41 -39 -48 -91 -48
-39 0 -66 20 -90 67 -16 32 -14 158 4 193 27 51 86 74 139 54z"/>
<path d="M10252 2958 c3 -216 4 -224 28 -267 31 -54 78 -81 143 -81 58 0 112
21 153 61 l31 30 7 -40 6 -41 65 0 65 0 0 280 0 280 -80 0 -80 0 0 -188 0
-188 -28 -28 c-39 -36 -90 -44 -122 -18 -25 20 -25 21 -28 221 l-3 201 -80 0
-81 0 4 -222z"/>
<path d="M8240 2905 l0 -55 140 0 140 0 0 55 0 55 -140 0 -140 0 0 -55z"/>
<path d="M10040 1718 c1 -194 5 -371 10 -393 11 -50 41 -75 91 -75 44 0 49 5
42 42 -3 17 -13 28 -29 32 l-24 6 0 370 0 370 -45 0 -45 0 0 -352z"/>
<path d="M10327 2012 c-35 -38 -8 -92 46 -92 27 0 57 32 57 61 0 43 -73 65
-103 31z"/>
<path d="M7685 1998 c-141 -49 -185 -210 -84 -308 25 -24 80 -55 158 -89 141
-62 171 -89 171 -156 0 -76 -62 -125 -160 -125 -54 0 -104 17 -161 56 l-53 35
-24 -25 c-22 -22 -24 -27 -11 -42 48 -58 164 -98 268 -92 147 9 231 85 231
210 0 61 -22 109 -64 141 -17 14 -89 51 -160 82 -139 63 -161 83 -161 146 0
109 160 145 281 63 l38 -26 18 22 c10 12 18 26 18 31 0 14 -65 58 -109 74 -49
17 -151 19 -196 3z"/>
<path d="M8952 1800 c-24 -11 -57 -29 -73 -41 l-29 -20 0 35 c0 35 -1 36 -40
36 l-40 0 0 -390 0 -390 45 0 45 0 0 135 c0 74 3 135 6 135 4 0 22 -9 40 -21
43 -26 129 -35 179 -19 47 15 111 72 135 120 60 117 42 299 -38 384 -55 58
-149 73 -230 36z m139 -73 c52 -34 73 -87 73 -182 1 -67 -3 -89 -25 -130 -42
-84 -123 -114 -206 -80 -72 30 -73 32 -73 191 l0 142 38 29 c76 59 136 68 193
30z"/>
<path d="M9592 1800 c-24 -11 -57 -29 -73 -41 l-29 -20 0 35 c0 35 -1 36 -40
36 l-40 0 0 -390 0 -390 45 0 45 0 0 135 c0 74 3 135 6 135 4 0 22 -9 40 -21
43 -26 129 -35 179 -19 47 15 111 72 135 120 60 117 42 299 -38 384 -55 58
-149 73 -230 36z m139 -73 c52 -34 73 -87 73 -182 1 -67 -3 -89 -25 -130 -42
-84 -123 -114 -206 -80 -72 30 -73 32 -73 191 l0 142 38 29 c76 59 136 68 193
30z"/>
<path d="M10731 1806 c-53 -19 -107 -71 -138 -133 -23 -49 -28 -70 -28 -138 1
-182 114 -295 282 -283 63 5 163 41 163 59 0 4 -8 17 -18 29 -18 22 -19 22
-51 5 -18 -9 -57 -19 -86 -22 -100 -10 -189 59 -202 156 l-6 41 192 0 191 0 0
53 c0 114 -47 196 -132 231 -44 19 -119 20 -167 2z m148 -74 c36 -18 65 -64
75 -119 l6 -33 -156 0 -156 0 6 31 c10 51 44 96 89 118 51 26 91 27 136 3z"/>
<path d="M11335 1802 c-17 -10 -45 -35 -63 -56 l-32 -37 0 51 0 50 -40 0 -40
0 0 -275 0 -275 44 0 45 0 3 188 c3 185 3 187 30 227 38 56 80 79 128 71 33
-5 38 -3 44 17 13 51 9 57 -41 57 -29 0 -60 -7 -78 -18z"/>
<path d="M8160 1604 c0 -231 6 -267 56 -315 27 -26 43 -33 88 -37 68 -5 112 9
164 54 l42 35 6 -40 c6 -39 9 -41 40 -41 l34 0 0 275 0 275 -40 0 -40 0 0
-193 c0 -218 0 -219 -78 -268 -88 -56 -171 -26 -186 66 -2 17 -5 112 -5 213
l-1 182 -40 0 -40 0 0 -206z"/>
<path d="M10320 1535 l-1 -275 46 0 45 0 0 275 0 275 -44 0 -45 0 -1 -275z"/>
</g>
</svg>
