<?xml version="1.0" standalone="no"?>
<!DOCTYPE svg PUBLIC "-//W3C//DTD SVG 20010904//EN"
 "http://www.w3.org/TR/2001/REC-SVG-20010904/DTD/svg10.dtd">
<svg version="1.0" xmlns="http://www.w3.org/2000/svg"
 width="256.000000pt" height="256.000000pt" viewBox="0 0 256.000000 256.000000"
 preserveAspectRatio="xMidYMid meet">
<metadata>
Created by potrace 1.14, written by Peter Selinger 2001-2017
</metadata>
<g transform="translate(0.000000,256.000000) scale(0.100000,-0.100000)"
fill="#000000" stroke="none">
<path d="M1185 2382 c-143 -81 -187 -149 -186 -287 1 -100 35 -172 89 -189 12
-4 22 -12 22 -17 0 -5 5 -9 11 -9 17 0 79 -71 72 -83 -3 -6 -1 -7 5 -3 7 4 13
2 13 -3 3 -21 4 -26 12 -38 5 -8 3 -13 -4 -13 -7 0 -10 -3 -7 -6 4 -3 15 -1
26 5 17 9 19 7 14 -14 -2 -14 -8 -23 -11 -20 -4 2 -8 -3 -8 -11 0 -10 10 -6
31 13 17 16 24 19 16 9 -14 -18 -13 -19 2 -13 10 3 19 3 22 -1 3 -4 -5 -9 -16
-9 -12 -1 -26 -7 -32 -14 -8 -8 -6 -10 11 -5 12 4 24 2 28 -4 3 -6 11 -7 17
-4 6 4 8 2 4 -4 -3 -6 -22 -9 -40 -8 -19 2 -40 -1 -48 -6 -10 -7 -8 -8 5 -4 9
3 17 0 17 -6 0 -9 3 -9 12 0 15 15 31 16 22 0 -5 -7 -2 -9 8 -5 9 3 20 1 25
-4 5 -5 9 4 8 25 0 19 -3 38 -7 42 -5 4 -8 17 -8 30 0 12 -5 24 -11 26 -9 3
-8 11 1 28 15 29 22 35 110 94 36 25 76 55 90 68 13 13 28 22 32 20 5 -1 8 3
8 9 0 5 4 8 9 5 5 -4 8 -18 6 -32 -3 -28 29 -74 50 -74 7 0 36 -22 66 -49 52
-47 53 -50 56 -107 3 -88 11 -118 39 -150 14 -16 42 -49 62 -74 52 -64 74 -86
96 -94 10 -3 16 -9 13 -13 -4 -3 -2 -12 4 -20 8 -9 8 -13 1 -13 -6 0 -20 -19
-30 -42 -26 -58 -60 -87 -167 -144 -45 -23 -85 -84 -79 -120 3 -16 6 -68 8
-116 5 -101 10 -122 42 -165 33 -43 169 -124 220 -130 60 -8 129 19 207 80 87
68 111 115 109 212 -3 158 -29 201 -167 285 -66 40 -85 65 -92 117 -3 21 -10
44 -16 51 -11 14 25 50 113 114 62 46 90 106 94 201 2 45 -2 87 -10 105 -30
72 -155 154 -222 146 -40 -5 -95 -35 -156 -83 -21 -17 -42 -31 -46 -31 -4 0
-15 12 -25 26 -25 39 -72 77 -134 110 -31 16 -59 33 -63 38 -3 5 -5 50 -3 100
4 141 -30 198 -157 256 -83 38 -141 45 -183 22z m105 -604 c0 -3 -9 -6 -20 -5
-11 1 -20 5 -20 9 0 3 9 6 20 5 11 -1 20 -5 20 -9z m30 -94 c0 -8 -19 -13 -24
-6 -3 5 1 9 9 9 8 0 15 -2 15 -3z m640 -299 c0 -8 -4 -15 -10 -15 -5 0 -7 7
-4 15 4 8 8 15 10 15 2 0 4 -7 4 -15z"/>
<path d="M539 2006 c-41 -14 -94 -45 -128 -76 -13 -11 -27 -20 -31 -20 -4 0
-25 -18 -47 -41 -53 -54 -66 -100 -61 -231 3 -101 5 -108 37 -154 23 -34 61
-67 125 -109 50 -32 105 -74 121 -93 l30 -34 41 39 c64 59 79 70 126 91 23 10
54 30 68 44 14 14 35 30 47 37 12 6 26 27 32 46 11 42 6 280 -7 315 -12 31
-76 90 -145 134 -92 58 -151 72 -208 52z"/>
<path d="M1236 1619 c3 -5 -6 -9 -20 -9 -14 0 -26 -3 -26 -8 0 -8 -38 -26 -80
-37 -76 -21 -111 -87 -115 -215 -5 -138 15 -183 114 -263 77 -62 128 -70 221
-36 53 19 78 27 92 28 3 1 21 13 38 27 50 43 72 97 76 190 4 92 -10 146 -52
201 -33 43 -131 110 -175 117 -66 12 -78 13 -73 5z"/>
<path d="M478 1136 c-97 -85 -130 -141 -130 -219 -1 -89 10 -122 68 -193 40
-50 112 -94 152 -94 38 0 98 26 185 79 70 42 83 48 72 31 -3 -5 1 -10 10 -10
9 0 15 -6 13 -12 -5 -14 2 -24 49 -75 26 -27 31 -40 27 -66 -12 -81 -2 -182
21 -228 22 -42 72 -83 176 -147 126 -78 154 -77 328 18 136 74 164 131 160
328 -3 146 -22 182 -139 269 -110 81 -187 108 -250 88 -37 -12 -129 -72 -175
-114 -55 -51 -90 -78 -82 -65 8 14 -23 39 -48 38 -41 -1 -68 44 -81 136 -3 19
-7 42 -8 50 -6 41 -59 121 -98 149 -24 16 -62 48 -85 70 -23 23 -51 41 -62 41
-12 0 -58 -33 -103 -74z"/>
</g>
</svg>
